<svg
  xmlns="http://www.w3.org/2000/svg"
  viewBox="0 0 1600 1200"
  width="1600"
  height="1200"
  preserveAspectRatio="xMidYMid meet"
  style="width: 100%; height: 100%; transform: translate3d(0px, 0px, 0px); content-visibility: visible;"
><defs><clipPath id="__lottie_element_2"><rect
        width="1600"
        height="1200"
        x="0"
        y="0"
      /></clipPath><clipPath id="__lottie_element_5"><path
        d="M0,0 L1000,0 L1000,1000 L0,1000z"
      /></clipPath><clipPath id="__lottie_element_25"><path
        d="M0,0 L1000,0 L1000,1000 L0,1000z"
      /></clipPath><clipPath id="__lottie_element_29"><path
        d="M0,0 L1000,0 L1000,1000 L0,1000z"
      /></clipPath><clipPath id="__lottie_element_33"><path
        d="M0,0 L1000,0 L1000,1000 L0,1000z"
      /></clipPath><clipPath id="__lottie_element_43"><path
        d="M0,0 L1000,0 L1000,1000 L0,1000z"
      /></clipPath><clipPath id="__lottie_element_171"><path
        d="M0,0 L1000,0 L1000,1000 L0,1000z"
      /></clipPath><clipPath id="__lottie_element_187"><path
        d="M0,0 L1000,0 L1000,1000 L0,1000z"
      /></clipPath></defs><g clip-path="url(#__lottie_element_2)"><g
      clip-path="url(#__lottie_element_5)"
      transform="matrix(1.4299999475479126,0,0,1.4299999475479126,85.0000228881836,-114.9999771118164)"
      opacity="1"
      style="display: block;"
    ><g
        transform="matrix(1,0,0,1,501,501)"
        opacity="1"
        style="display: block;"
      ><g opacity="1" transform="matrix(1,0,0,1,0,0)"><path
            fill="rgb(0,151,195)"
            fill-opacity="1"
            d=" M-240,-380 C-241.5,-378.4620056152344 -242.15199279785156,-376.7200012207031 -242.60299682617188,-374.7330017089844 C-243.0540008544922,-372.7460021972656 -243.30299377441406,-370.5150146484375 -244,-368 C-245.26800537109375,-363.4209899902344 -246.43299865722656,-358.6719970703125 -247.447998046875,-353.6919860839844 C-248.46299743652344,-348.7120056152344 -249.32899475097656,-343.5010070800781 -250,-338 C-250.8769989013672,-330.8009948730469 -251.93099975585938,-323.29901123046875 -252.86300659179688,-315.97198486328125 C-253.7949981689453,-308.6449890136719 -254.6060028076172,-301.4949951171875 -255,-295 C-255.2259979248047,-291.2720031738281 -255.38400268554688,-287.0559997558594 -255.40699768066406,-283.0050048828125 C-255.42999267578125,-278.9540100097656 -255.31700134277344,-275.0690002441406 -255,-272 C-254.26100158691406,-264.8420104980469 -251.35499572753906,-256.8429870605469 -247.71099853515625,-248.7570037841797 C-244.06700134277344,-240.6719970703125 -239.68600463867188,-232.5 -236,-225 C-231.50900268554688,-215.86300659179688 -227.43099975585938,-204.4949951171875 -224,-196 C-223.0489959716797,-193.64599609375 -221.9929962158203,-192.11500549316406 -221,-190 C-219.09300231933594,-185.93899536132812 -218.20599365234375,-181.56300354003906 -216,-178 C-215.73899841308594,-177.5780029296875 -214.33299255371094,-177.4429931640625 -214,-177 C-213.35400390625,-176.13800048828125 -213.57899475097656,-174.77000427246094 -213,-174 C-209.08700561523438,-168.8000030517578 -203.85299682617188,-162.927001953125 -201,-158 C-198.63900756835938,-153.9219970703125 -195.59800720214844,-148.61900329589844 -194,-145 C-189.60000610351562,-135.03900146484375 -187.802001953125,-128.0030059814453 -183,-116 C-181.60299682617188,-112.50900268554688 -176.01800537109375,-95.5199966430664 -171,-96 C-169.6060028076172,-96.13300323486328 -167.74600219726562,-99.84200286865234 -166,-103 C-161.72999572753906,-110.72200012207031 -159.06500244140625,-117.2249984741211 -157,-125 C-154.85899353027344,-133.0590057373047 -152.64599609375,-142.03500366210938 -151,-151 C-148.3470001220703,-165.4550018310547 -146.49200439453125,-175.9550018310547 -148,-192 C-149.27499389648438,-205.56700134277344 -155.48199462890625,-218.88400268554688 -160,-227 C-166.18699645996094,-238.11399841308594 -173.6649932861328,-249.16600036621094 -178,-260 C-180.41299438476562,-266.031005859375 -181.29400634765625,-272.093994140625 -183,-277 C-185.0050048828125,-282.7659912109375 -187.72999572753906,-287.31201171875 -190,-292 C-191.46800231933594,-295.0320129394531 -192.781005859375,-299.72698974609375 -194,-301 C-195.7050018310547,-302.7799987792969 -197.29100036621094,-307.260009765625 -198,-308 C-199.63099670410156,-309.7030029296875 -200.9600067138672,-311.3139953613281 -202,-313 C-202.2989959716797,-313.4849853515625 -201.76400756835938,-314.47601318359375 -202,-315 C-202.15699768066406,-315.3489990234375 -203.76199340820312,-315.5889892578125 -204,-316 C-204.72000122070312,-317.2449951171875 -205.16900634765625,-318.5830078125 -206,-320 C-211.53199768066406,-329.4330139160156 -216.3249969482422,-339.5459899902344 -221,-349 C-223.24899291992188,-353.54901123046875 -226.4770050048828,-362.3659973144531 -229,-365 C-233.00599670410156,-369.1809997558594 -235.5070037841797,-377.7330017089844 -240,-380z"
          /></g><g opacity="1" transform="matrix(1,0,0,1,0,0)"><path
            stroke-linecap="butt"
            stroke-linejoin="miter"
            fill-opacity="0"
            stroke-miterlimit="4"
            stroke="rgb(37,36,36)"
            stroke-opacity="1"
            stroke-width="2"
            d=" M-235,-347 C-232.3679962158203,-329.42498779296875 -227.10499572753906,-294.27398681640625 -219,-269 C-211.5070037841797,-245.63400268554688 -194.80599975585938,-225.71499633789062 -188.5,-202 C-179.32400512695312,-167.49000549316406 -175.10800170898438,-119.83000183105469 -173,-96"
          /></g></g><g
        transform="matrix(1,0,0,1,500,498)"
        opacity="1"
        style="display: block;"
      ><g opacity="1" transform="matrix(1,0,0,1,0,0)"><path
            fill="rgb(0,151,195)"
            fill-opacity="1"
            d=" M-298,-187 C-301.2200012207031,-186.02000427246094 -303.0539855957031,-185.36099243164062 -303.9159851074219,-184.2760009765625 C-304.77801513671875,-183.1909942626953 -304.6679992675781,-181.67999267578125 -304,-179 C-302.7640075683594,-174.0399932861328 -298.99700927734375,-170.28900146484375 -294.6719970703125,-167.2779998779297 C-290.34698486328125,-164.26699829101562 -285.4649963378906,-161.9969940185547 -282,-160 C-280.9679870605469,-159.40499877929688 -279.27398681640625,-158.66600036621094 -277.30999755859375,-157.6959991455078 C-275.34600830078125,-156.7259979248047 -273.1109924316406,-155.5240020751953 -271,-154 C-269.14898681640625,-152.6649932861328 -266.0320129394531,-149.64599609375 -262.9360046386719,-146.2209930419922 C-259.8399963378906,-142.79600524902344 -256.7650146484375,-138.96400451660156 -255,-136 C-250.61099243164062,-128.63299560546875 -247.25599670410156,-117.65899658203125 -243.55099487304688,-107.38899993896484 C-239.8459930419922,-97.11900329589844 -235.79100036621094,-87.5530014038086 -230,-83 C-225.44500732421875,-79.41799926757812 -218.78700256347656,-77.12100219726562 -211.9720001220703,-75.24299621582031 C-205.15699768066406,-73.36499786376953 -198.18499755859375,-71.90599822998047 -193,-70 C-187.63499450683594,-68.02799987792969 -182.72799682617188,-65.447998046875 -178.74099731445312,-62.0260009765625 C-174.75399780273438,-58.604000091552734 -171.68600463867188,-54.34000015258789 -170,-49 C-166.93299865722656,-39.28499984741211 -168.23599243164062,-27.520999908447266 -169.52999877929688,-16.06800079345703 C-170.82400512695312,-4.613999843597412 -172.10800170898438,6.5279998779296875 -169,15 C-168.03199768066406,17.638999938964844 -165.18600463867188,21.645999908447266 -162.0050048828125,24.989999771118164 C-158.82400512695312,28.333999633789062 -155.30799865722656,31.013999938964844 -153,31 C-153.5240020751953,31.003000259399414 -151.99099731445312,30.101999282836914 -150.218994140625,29.149999618530273 C-148.44700622558594,28.197999954223633 -146.43499755859375,27.19700050354004 -146,27 C-145.83799743652344,26.927000045776367 -145.67999267578125,26.48900032043457 -145.51699829101562,26.038000106811523 C-145.35400390625,25.586999893188477 -145.18499755859375,25.12299919128418 -145,25 C-144.77000427246094,24.84600067138672 -144.3979949951172,24.90399932861328 -144.0189971923828,24.97100067138672 C-143.63999938964844,25.038000106811523 -143.2550048828125,25.114999771118164 -143,25 C-142.83700561523438,24.927000045776367 -142.67999267578125,24.488000869750977 -142.51800537109375,24.03700065612793 C-142.3560028076172,23.586000442504883 -142.18800354003906,23.12299919128418 -142,23 C-141.06199645996094,22.382999420166016 -139.9709930419922,21.898000717163086 -138.91000366210938,21.434999465942383 C-137.8489990234375,20.972000122070312 -136.81700134277344,20.5310001373291 -136,20 C-133.4510040283203,18.3439998626709 -131.25399780273438,16.819000244140625 -129.16799926757812,15.470000267028809 C-127.08200073242188,14.121000289916992 -125.10600280761719,12.949999809265137 -123,12 C-122.83799743652344,11.927000045776367 -122.68000030517578,11.48900032043457 -122.51699829101562,11.038000106811523 C-122.35399627685547,10.586999893188477 -122.18499755859375,10.123000144958496 -122,10 C-121.7699966430664,9.845999717712402 -121.39800262451172,9.904000282287598 -121.01899719238281,9.970999717712402 C-120.63999938964844,10.038000106811523 -120.25499725341797,10.114999771118164 -120,10 C-119.83399963378906,9.925000190734863 -119.68000030517578,9.487000465393066 -119.51899719238281,9.03600025177002 C-119.35800170898438,8.585000038146973 -119.19100189208984,8.121999740600586 -119,8 C-117.77100372314453,7.210999965667725 -116.05500030517578,6.482999801635742 -114.50399780273438,5.815999984741211 C-112.9530029296875,5.14900016784668 -111.56700134277344,4.543000221252441 -111,4 C-109.40599822998047,2.4739999771118164 -107.76399993896484,1.2719999551773071 -106.09100341796875,0.1770000010728836 C-104.41799926757812,-0.9179999828338623 -102.71499633789062,-1.9049999713897705 -101,-3 C-97.85099792480469,-5.011000156402588 -95.0250015258789,-6.672999858856201 -92.1500015258789,-8.376999855041504 C-89.27400207519531,-10.081000328063965 -86.3489990234375,-11.824999809265137 -83,-14 C-79.77300262451172,-16.09600067138672 -74.12000274658203,-20.14299964904785 -70,-22 C-69.6760025024414,-22.145999908447266 -69.37000274658203,-23.753000259399414 -69,-24 C-68.54000091552734,-24.30699920654297 -67.51100158691406,-23.770000457763672 -67,-24 C-66.6969985961914,-24.136999130249023 -66.33699798583984,-25.750999450683594 -66,-26 C-65.57499694824219,-26.31399917602539 -64.48999786376953,-25.77899932861328 -64,-26 C-63.75299835205078,-26.111000061035156 -63.25699996948242,-27.76099967956543 -63,-28 C-62.638999938964844,-28.336000442504883 -61.37099838256836,-27.67300033569336 -61,-28 C-60.672000885009766,-28.288999557495117 -61.097999572753906,-30.534000396728516 -61,-31 C-60.1879997253418,-34.84299850463867 -64.65599822998047,-45.12699890136719 -66,-47 C-77.0780029296875,-62.4379997253418 -114.16200256347656,-65.53500366210938 -131,-77 C-136.32000732421875,-80.62200164794922 -141.25,-86.7229995727539 -144,-92 C-151.09800720214844,-105.62200164794922 -151.15899658203125,-125.10900115966797 -159,-140 C-160.2969970703125,-142.46299743652344 -162.81700134277344,-145.41900634765625 -164,-147 C-167.2899932861328,-151.39599609375 -174.86700439453125,-158.0050048828125 -179,-160 C-199.86000061035156,-170.0679931640625 -232.18499755859375,-162.11399841308594 -256,-171 C-262.5610046386719,-173.447998046875 -269.2720031738281,-177.04200744628906 -275,-180 C-275.3529968261719,-180.1820068359375 -275.62200927734375,-181.7169952392578 -276,-182 C-276.656005859375,-182.49200439453125 -278.42498779296875,-182.718994140625 -279,-183 C-284.7720031738281,-185.8249969482422 -292.4169921875,-188.697998046875 -298,-187z"
          /></g><g opacity="1" transform="matrix(1,0,0,1,0,0)"><path
            stroke-linecap="butt"
            stroke-linejoin="miter"
            fill-opacity="0"
            stroke-miterlimit="4"
            stroke="rgb(55,93,218)"
            stroke-opacity="1"
            stroke-width="2"
            d=" M-105.5,1.5 C-123.41300201416016,-25.5 -159.23899841308594,-79.4990005493164 -193.5,-113.5 C-220.2949981689453,-140.09100341796875 -264.4320068359375,-165.44700622558594 -286.5,-178.125"
          /></g></g></g><g
      transform="matrix(1.4299999475479126,0,0,1.4299999475479126,933.7335815429688,722.951416015625)"
      opacity="1"
      style="display: block;"
    ><g
        opacity="1"
        transform="matrix(1,0,0,1,147.1820068359375,108.40499877929688)"
      ><path
          fill="rgb(226,233,255)"
          fill-opacity="1"
          d=" M-71.19200134277344,108.40399932861328 C-71.19200134277344,108.40399932861328 147.18299865722656,-30.496999740600586 147.18299865722656,-30.496999740600586 C147.18299865722656,-30.496999740600586 -147.1820068359375,-108.40399932861328 -147.1820068359375,-108.40399932861328 C-147.1820068359375,-108.40399932861328 -71.19200134277344,108.40399932861328 -71.19200134277344,108.40399932861328z"
        /><g opacity="1" transform="matrix(1,0,0,1,0,0)" /></g></g><g
      transform="matrix(1.4299999475479126,0,0,1.4299999475479126,563.4694213867188,193.7270050048828)"
      opacity="1"
      style="display: block;"
    ><g
        opacity="1"
        transform="matrix(1,0,0,1,178.33900451660156,293.572998046875)"
      ><path
          fill="rgb(55,93,218)"
          fill-opacity="1"
          d=" M168.78799438476562,-217.33999633789062 C168.78799438476562,-217.33999633789062 -153.37600708007812,-292.5409851074219 -153.37600708007812,-292.5409851074219 C-156.09800720214844,-293.322998046875 -158.5489959716797,-292.4010009765625 -160.25399780273438,-290.3269958496094 C-160.25399780273438,-290.3269958496094 -160.25999450683594,-290.3370056152344 -160.25999450683594,-290.3370056152344 C-160.25999450683594,-290.3370056152344 -178.08900451660156,-276.4580078125 -178.08900451660156,-276.4580078125 C-178.08900451660156,-276.4580078125 -162.67599487304688,-239.1580047607422 -162.67599487304688,-239.1580047607422 C-162.67599487304688,-239.1580047607422 -162.677001953125,171.95799255371094 -162.677001953125,171.95799255371094 C-162.677001953125,178.9340057373047 -158.49200439453125,185.84300231933594 -153.3769989013672,187.31300354003906 C-153.3769989013672,187.31300354003906 127.802001953125,268.114990234375 127.802001953125,268.114990234375 C127.802001953125,268.114990234375 155.5749969482422,293.322998046875 155.5749969482422,293.322998046875 C155.5749969482422,293.322998046875 173.67799377441406,279.5409851074219 173.67799377441406,279.5409851074219 C173.67799377441406,279.5409851074219 173.60400390625,279.4129943847656 173.60400390625,279.4129943847656 C176.28399658203125,277.95098876953125 178.08799743652344,274.4540100097656 178.08799743652344,269.8819885253906 C178.08799743652344,269.8819885253906 178.08900451660156,-201.98500061035156 178.08900451660156,-201.98500061035156 C178.08900451660156,-208.96099853515625 173.9029998779297,-215.8699951171875 168.78799438476562,-217.33999633789062z"
        /></g></g><g
      transform="matrix(1.4299999475479126,0,0,1.4299999475479126,560.2791137695312,212.1997528076172)"
      opacity="1"
      style="display: block;"
    ><g
        opacity="1"
        transform="matrix(1,0,0,1,170.13699340820312,288.26800537109375)"
      ><path
          fill="rgb(226,233,255)"
          fill-opacity="1"
          d=" M160.61399841308594,286.65399169921875 C160.61399841308594,286.65399169921875 -160.61399841308594,200.6510009765625 -160.61399841308594,200.6510009765625 C-165.71400451660156,199.28599548339844 -169.88699340820312,192.46200561523438 -169.88699340820312,185.48599243164062 C-169.88699340820312,185.48599243164062 -169.88600158691406,-276.4530029296875 -169.88600158691406,-276.4530029296875 C-169.88600158691406,-283.4280090332031 -165.71400451660156,-288.0190124511719 -160.61399841308594,-286.65399169921875 C-160.61399841308594,-286.65399169921875 160.61500549316406,-210.5780029296875 160.61500549316406,-210.5780029296875 C165.71499633789062,-209.21299743652344 169.88699340820312,-202.38800048828125 169.88699340820312,-195.41299438476562 C169.88699340820312,-195.41299438476562 169.88600158691406,276.4530029296875 169.88600158691406,276.4530029296875 C169.88600158691406,283.4280090332031 165.71400451660156,288.0190124511719 160.61399841308594,286.65399169921875z"
        /></g></g><g
      transform="matrix(1.4299999475479126,0,0,1.4299999475479126,592.7457885742188,262.3355407714844)"
      opacity="1"
      style="display: block;"
    ><g
        opacity="1"
        transform="matrix(1,0,0,1,151.16200256347656,254.83299255371094)"
      ><path
          fill="rgb(255,255,255)"
          fill-opacity="1"
          d=" M148.302001953125,251.97300720214844 C148.302001953125,251.97300720214844 -148.302001953125,172.56300354003906 -148.302001953125,172.56300354003906 C-148.302001953125,172.56300354003906 -148.302001953125,-251.97300720214844 -148.302001953125,-251.97300720214844 C-148.302001953125,-251.97300720214844 148.302001953125,-182.08299255371094 148.302001953125,-182.08299255371094 C148.302001953125,-182.08299255371094 148.302001953125,251.97300720214844 148.302001953125,251.97300720214844z"
        /><path
          stroke-linecap="butt"
          stroke-linejoin="miter"
          fill-opacity="0"
          stroke-miterlimit="10"
          stroke="rgb(226,233,255)"
          stroke-opacity="1"
          stroke-width="1.144"
          d=" M148.302001953125,251.97300720214844 C148.302001953125,251.97300720214844 -148.302001953125,172.56300354003906 -148.302001953125,172.56300354003906 C-148.302001953125,172.56300354003906 -148.302001953125,-251.97300720214844 -148.302001953125,-251.97300720214844 C-148.302001953125,-251.97300720214844 148.302001953125,-182.08299255371094 148.302001953125,-182.08299255371094 C148.302001953125,-182.08299255371094 148.302001953125,251.97300720214844 148.302001953125,251.97300720214844z"
        /></g></g><g
      transform="matrix(1.4299999475479126,0,0,1.4299999475479126,678.8446655273438,207.8682861328125)"
      opacity="1"
      style="display: block;"
    ><g
        opacity="1"
        transform="matrix(1,0,0,1,91.73500061035156,56.61000061035156)"
      ><path
          fill="rgb(55,93,218)"
          fill-opacity="1"
          d=" M66.03800201416016,-3.816999912261963 C66.03800201416016,-3.816999912261963 63.25699996948242,-4.486999988555908 63.25699996948242,-4.486999988555908 C61.03300094604492,-18.44499969482422 50.694000244140625,-31.270000457763672 38.63399887084961,-34.18000030517578 C38.63399887084961,-34.18000030517578 -41.23699951171875,-53.45000076293945 -41.23699951171875,-53.45000076293945 C-53.297000885009766,-56.36000061035156 -63.119998931884766,-48.4010009765625 -64.6719970703125,-35.354000091552734 C-64.6719970703125,-35.354000091552734 -67.4530029296875,-36.02399826049805 -67.4530029296875,-36.02399826049805 C-80.84600067138672,-39.255001068115234 -91.48500061035156,-29.086999893188477 -91.09600067138672,-13.427000045776367 C-90.70700073242188,2.2320001125335693 -79.43099975585938,17.687999725341797 -66.03800201416016,20.91900062561035 C-66.03800201416016,20.91900062561035 67.4530029296875,53.12799835205078 67.4530029296875,53.12799835205078 C80.84700012207031,56.36000061035156 91.48500061035156,46.191001892089844 91.09600067138672,30.5310001373291 C90.70700073242188,14.871000289916992 79.43099975585938,-0.5860000252723694 66.03800201416016,-3.816999912261963z"
        /></g></g><g
      clip-path="url(#__lottie_element_187)"
      style="display: block;"
      transform="matrix(1.4299999475479126,0,0,1.4299999475479126,85.0000228881836,263.3013916015625)"
      opacity="1"
    ><g
        style="display: none;"
        transform="matrix(1,0,0,1,482.90802001953125,432.2980041503906)"
        opacity="1"
      ><g
          opacity="1"
          transform="matrix(1,0,0,1,74.91699981689453,21.4689998626709)"
        ><path
            stroke-linecap="round"
            stroke-linejoin="round"
            fill-opacity="0"
            stroke="rgb(226,233,255)"
            stroke-opacity="1"
            stroke-width="4.964"
            d=" M-72.43499755859375,-18.98699951171875 C-72.43499755859375,-18.98699951171875 72.43499755859375,18.98699951171875 72.43499755859375,18.98699951171875"
          /></g></g><g
        style="display: block;"
        transform="matrix(1,0,0,1,483.6000061035156,397.8949890136719)"
        opacity="1"
      ><g
          opacity="1"
          transform="matrix(1,0,0,1,45.62900161743164,13.883999824523926)"
        ><path
            stroke-linecap="round"
            stroke-linejoin="round"
            fill-opacity="0"
            stroke="rgb(226,233,255)"
            stroke-opacity="1"
            stroke-width="4.964"
            d=" M-43.14699935913086,-11.402000427246094 C-43.14699935913086,-11.402000427246094 -27.236000061035156,-7.197000026702881 -9.07800006866455,-2.3989999294281006"
          /></g></g><g
        transform="matrix(0.5172255039215088,0,0,0.5172255039215088,397.1329650878906,382.2005310058594)"
        opacity="1"
        style="display: block;"
      ><g
          opacity="1"
          transform="matrix(1,0,0,1,28.215999603271484,39.040000915527344)"
        ><path
            fill="rgb(77,118,255)"
            fill-opacity="1"
            d=" M27.966999053955078,38.78900146484375 C27.966999053955078,38.78900146484375 -27.93600082397461,23.937999725341797 -27.93600082397461,23.937999725341797 C-27.93600082397461,23.937999725341797 -27.966999053955078,-38.78900146484375 -27.966999053955078,-38.78900146484375 C-27.966999053955078,-38.78900146484375 27.93600082397461,-23.937999725341797 27.93600082397461,-23.937999725341797 C27.93600082397461,-23.937999725341797 27.966999053955078,38.78900146484375 27.966999053955078,38.78900146484375z"
          /></g></g></g><g
      clip-path="url(#__lottie_element_171)"
      style="display: block;"
      transform="matrix(1.4299999475479126,0,0,1.4299999475479126,85.0000228881836,105.28639221191406)"
      opacity="1"
    ><g
        style="display: block;"
        transform="matrix(1,0,0,1,482.90802001953125,432.2980041503906)"
        opacity="1"
      ><g
          opacity="1"
          transform="matrix(1,0,0,1,74.91699981689453,21.4689998626709)"
        ><path
            stroke-linecap="round"
            stroke-linejoin="round"
            fill-opacity="0"
            stroke="rgb(226,233,255)"
            stroke-opacity="1"
            stroke-width="4.964"
            d=" M-72.43499755859375,-18.98699951171875 C-72.43499755859375,-18.98699951171875 72.43499755859375,18.98699951171875 72.43499755859375,18.98699951171875"
          /></g></g><g
        style="display: block;"
        transform="matrix(1,0,0,1,483.6000061035156,397.8949890136719)"
        opacity="1"
      ><g
          opacity="1"
          transform="matrix(1,0,0,1,45.62900161743164,13.883999824523926)"
        ><path
            stroke-linecap="round"
            stroke-linejoin="round"
            fill-opacity="0"
            stroke="rgb(226,233,255)"
            stroke-opacity="1"
            stroke-width="4.964"
            d=" M-43.14699935913086,-11.402000427246094 C-43.14699935913086,-11.402000427246094 43.14699935913086,11.402000427246094 43.14699935913086,11.402000427246094"
          /></g></g><g
        transform="matrix(1.0001424551010132,0,0,1.0001424551010132,383.5069580078125,363.3474426269531)"
        opacity="1"
        style="display: block;"
      ><g
          opacity="1"
          transform="matrix(1,0,0,1,28.215999603271484,39.040000915527344)"
        ><path
            fill="rgb(77,118,255)"
            fill-opacity="1"
            d=" M27.966999053955078,38.78900146484375 C27.966999053955078,38.78900146484375 -27.93600082397461,23.937999725341797 -27.93600082397461,23.937999725341797 C-27.93600082397461,23.937999725341797 -27.966999053955078,-38.78900146484375 -27.966999053955078,-38.78900146484375 C-27.966999053955078,-38.78900146484375 27.93600082397461,-23.937999725341797 27.93600082397461,-23.937999725341797 C27.93600082397461,-23.937999725341797 27.966999053955078,38.78900146484375 27.966999053955078,38.78900146484375z"
          /></g></g></g><g
      clip-path="url(#__lottie_element_25)"
      transform="matrix(1.4299999475479126,0,0,1.4299999475479126,85.0000228881836,-54.15860366821289)"
      opacity="1"
      style="display: block;"
    ><g
        transform="matrix(1,0,0,1,482.90802001953125,432.2980041503906)"
        opacity="1"
        style="display: block;"
      ><g
          opacity="1"
          transform="matrix(1,0,0,1,74.91699981689453,21.4689998626709)"
        ><path
            stroke-linecap="round"
            stroke-linejoin="round"
            fill-opacity="0"
            stroke="rgb(226,233,255)"
            stroke-opacity="1"
            stroke-width="4.964"
            d=" M-72.43499755859375,-18.98699951171875 C-72.43499755859375,-18.98699951171875 72.43499755859375,18.98699951171875 72.43499755859375,18.98699951171875"
          /></g></g><g
        transform="matrix(1,0,0,1,483.6000061035156,397.8949890136719)"
        opacity="1"
        style="display: block;"
      ><g
          opacity="1"
          transform="matrix(1,0,0,1,45.62900161743164,13.883999824523926)"
        ><path
            stroke-linecap="round"
            stroke-linejoin="round"
            fill-opacity="0"
            stroke="rgb(226,233,255)"
            stroke-opacity="1"
            stroke-width="4.964"
            d=" M-43.14699935913086,-11.402000427246094 C-43.14699935913086,-11.402000427246094 43.14699935913086,11.402000427246094 43.14699935913086,11.402000427246094"
          /></g></g><g
        transform="matrix(0.9999961853027344,0,0,0.9999961853027344,383.5111083984375,363.3531494140625)"
        opacity="1"
        style="display: block;"
      ><g
          opacity="1"
          transform="matrix(1,0,0,1,28.215999603271484,39.040000915527344)"
        ><path
            fill="rgb(77,118,255)"
            fill-opacity="1"
            d=" M27.966999053955078,38.78900146484375 C27.966999053955078,38.78900146484375 -27.93600082397461,23.937999725341797 -27.93600082397461,23.937999725341797 C-27.93600082397461,23.937999725341797 -27.966999053955078,-38.78900146484375 -27.966999053955078,-38.78900146484375 C-27.966999053955078,-38.78900146484375 27.93600082397461,-23.937999725341797 27.93600082397461,-23.937999725341797 C27.93600082397461,-23.937999725341797 27.966999053955078,38.78900146484375 27.966999053955078,38.78900146484375z"
          /></g></g><g
        transform="matrix(1,0,0,1,381.7760009765625,379.8809814453125)"
        opacity="1"
        style="display: block;"
      ><g
          opacity="1"
          transform="matrix(1,0,0,1,28.475000381469727,24.929000854492188)"
        ><path
            stroke-linecap="round"
            stroke-linejoin="round"
            fill-opacity="0"
            stroke="rgb(255,255,255)"
            stroke-opacity="1"
            stroke-width="5.531"
            d=" M-14.64799976348877,-11.10099983215332 C-14.64799976348877,-11.10099983215332 -1.9299999475479126,11.10099983215332 -1.9299999475479126,11.10099983215332 C-1.9299999475479126,11.10099983215332 6.769000053405762,-0.1509999930858612 11.564000129699707,-6.354000091552734"
          /></g></g></g><g
      clip-path="url(#__lottie_element_29)"
      transform="matrix(1.4299999475479126,0,0,1.4299999475479126,85.0000228881836,-212.17364501953125)"
      opacity="0.6664820393125206"
      style="display: block;"
    ><g
        transform="matrix(1,0,0,1,482.90802001953125,432.2980041503906)"
        opacity="1"
        style="display: block;"
      ><g
          opacity="1"
          transform="matrix(1,0,0,1,74.91699981689453,21.4689998626709)"
        ><path
            stroke-linecap="round"
            stroke-linejoin="round"
            fill-opacity="0"
            stroke="rgb(226,233,255)"
            stroke-opacity="1"
            stroke-width="4.964"
            d=" M-72.43499755859375,-18.98699951171875 C-72.43499755859375,-18.98699951171875 72.43499755859375,18.98699951171875 72.43499755859375,18.98699951171875"
          /></g></g><g
        transform="matrix(1,0,0,1,483.6000061035156,397.8949890136719)"
        opacity="1"
        style="display: block;"
      ><g
          opacity="1"
          transform="matrix(1,0,0,1,45.62900161743164,13.883999824523926)"
        ><path
            stroke-linecap="round"
            stroke-linejoin="round"
            fill-opacity="0"
            stroke="rgb(226,233,255)"
            stroke-opacity="1"
            stroke-width="4.964"
            d=" M-43.14699935913086,-11.402000427246094 C-43.14699935913086,-11.402000427246094 43.14699935913086,11.402000427246094 43.14699935913086,11.402000427246094"
          /></g></g><g
        transform="matrix(0.9999983310699463,0,0,0.9999983310699463,383.51104736328125,363.3530578613281)"
        opacity="1"
        style="display: block;"
      ><g
          opacity="1"
          transform="matrix(1,0,0,1,28.215999603271484,39.040000915527344)"
        ><path
            fill="rgb(77,118,255)"
            fill-opacity="1"
            d=" M27.966999053955078,38.78900146484375 C27.966999053955078,38.78900146484375 -27.93600082397461,23.937999725341797 -27.93600082397461,23.937999725341797 C-27.93600082397461,23.937999725341797 -27.966999053955078,-38.78900146484375 -27.966999053955078,-38.78900146484375 C-27.966999053955078,-38.78900146484375 27.93600082397461,-23.937999725341797 27.93600082397461,-23.937999725341797 C27.93600082397461,-23.937999725341797 27.966999053955078,38.78900146484375 27.966999053955078,38.78900146484375z"
          /></g></g><g
        transform="matrix(1,0,0,1,381.7760009765625,379.8809814453125)"
        opacity="1"
        style="display: block;"
      ><g
          opacity="1"
          transform="matrix(1,0,0,1,28.475000381469727,24.929000854492188)"
        ><path
            stroke-linecap="round"
            stroke-linejoin="round"
            fill-opacity="0"
            stroke="rgb(255,255,255)"
            stroke-opacity="1"
            stroke-width="5.531"
            d=" M-14.64799976348877,-11.10099983215332 C-14.64799976348877,-11.10099983215332 -1.9299999475479126,11.10099983215332 -1.9299999475479126,11.10099983215332 C-1.9299999475479126,11.10099983215332 14.64799976348877,-10.343000411987305 14.64799976348877,-10.343000411987305"
          /></g></g></g><g
      clip-path="url(#__lottie_element_33)"
      transform="matrix(1.4299999475479126,0,0,1.4299999475479126,85.0000228881836,-371.6186218261719)"
      opacity="0"
      style="display: block;"
    ><g
        transform="matrix(1,0,0,1,482.90802001953125,432.2980041503906)"
        opacity="1"
        style="display: block;"
      ><g
          opacity="1"
          transform="matrix(1,0,0,1,74.91699981689453,21.4689998626709)"
        ><path
            stroke-linecap="round"
            stroke-linejoin="round"
            fill-opacity="0"
            stroke="rgb(226,233,255)"
            stroke-opacity="1"
            stroke-width="4.964"
            d=" M-72.43499755859375,-18.98699951171875 C-72.43499755859375,-18.98699951171875 72.43499755859375,18.98699951171875 72.43499755859375,18.98699951171875"
          /></g></g><g
        transform="matrix(1,0,0,1,483.6000061035156,397.8949890136719)"
        opacity="1"
        style="display: block;"
      ><g
          opacity="1"
          transform="matrix(1,0,0,1,45.62900161743164,13.883999824523926)"
        ><path
            stroke-linecap="round"
            stroke-linejoin="round"
            fill-opacity="0"
            stroke="rgb(226,233,255)"
            stroke-opacity="1"
            stroke-width="4.964"
            d=" M-43.14699935913086,-11.402000427246094 C-43.14699935913086,-11.402000427246094 43.14699935913086,11.402000427246094 43.14699935913086,11.402000427246094"
          /></g></g><g
        transform="matrix(1,0,0,1,383.510986328125,363.3529968261719)"
        opacity="1"
        style="display: block;"
      ><g
          opacity="1"
          transform="matrix(1,0,0,1,28.215999603271484,39.040000915527344)"
        ><path
            fill="rgb(77,118,255)"
            fill-opacity="1"
            d=" M27.966999053955078,38.78900146484375 C27.966999053955078,38.78900146484375 -27.93600082397461,23.937999725341797 -27.93600082397461,23.937999725341797 C-27.93600082397461,23.937999725341797 -27.966999053955078,-38.78900146484375 -27.966999053955078,-38.78900146484375 C-27.966999053955078,-38.78900146484375 27.93600082397461,-23.937999725341797 27.93600082397461,-23.937999725341797 C27.93600082397461,-23.937999725341797 27.966999053955078,38.78900146484375 27.966999053955078,38.78900146484375z"
          /></g></g><g
        transform="matrix(1,0,0,1,381.7760009765625,379.8809814453125)"
        opacity="1"
        style="display: block;"
      ><g
          opacity="1"
          transform="matrix(1,0,0,1,28.475000381469727,24.929000854492188)"
        ><path
            stroke-linecap="round"
            stroke-linejoin="round"
            fill-opacity="0"
            stroke="rgb(255,255,255)"
            stroke-opacity="1"
            stroke-width="5.531"
            d=" M-14.64799976348877,-11.10099983215332 C-14.64799976348877,-11.10099983215332 -1.9299999475479126,11.10099983215332 -1.9299999475479126,11.10099983215332 C-1.9299999475479126,11.10099983215332 14.64799976348877,-10.343000411987305 14.64799976348877,-10.343000411987305"
          /></g></g></g><g
      transform="matrix(1.4299999475479126,0,0,1.4299999475479126,666.53955078125,218.0312957763672)"
      opacity="1"
      style="display: block;"
    ><g
        opacity="1"
        transform="matrix(1,0,0,1,91.73500061035156,56.61000061035156)"
      ><path
          fill="rgb(110,170,255)"
          fill-opacity="1"
          d=" M66.03800201416016,-3.816999912261963 C66.03800201416016,-3.816999912261963 63.25699996948242,-4.486999988555908 63.25699996948242,-4.486999988555908 C61.034000396728516,-18.44499969482422 50.694000244140625,-31.270000457763672 38.63399887084961,-34.18000030517578 C38.63399887084961,-34.18000030517578 -41.236000061035156,-53.45100021362305 -41.236000061035156,-53.45100021362305 C-53.297000885009766,-56.36000061035156 -63.119998931884766,-48.4010009765625 -64.6719970703125,-35.354000091552734 C-64.6719970703125,-35.354000091552734 -67.4530029296875,-36.02399826049805 -67.4530029296875,-36.02399826049805 C-80.84600067138672,-39.255001068115234 -91.48500061035156,-29.086999893188477 -91.09600067138672,-13.427000045776367 C-90.70700073242188,2.2320001125335693 -79.43000030517578,17.687999725341797 -66.03700256347656,20.91900062561035 C-66.03700256347656,20.91900062561035 67.4530029296875,53.12799835205078 67.4530029296875,53.12799835205078 C80.84700012207031,56.36000061035156 91.48500061035156,46.191001892089844 91.09700012207031,30.5310001373291 C90.70700073242188,14.871000289916992 79.43099975585938,-0.5860000252723694 66.03800201416016,-3.816999912261963z"
        /></g></g><g
      transform="matrix(1.4299999475479126,0,0,1.4299999475479126,712.6627197265625,264.7193603515625)"
      opacity="1"
      style="display: block;"
    ><g
        opacity="1"
        transform="matrix(1,0,0,1,57.832000732421875,16.135000228881836)"
      ><path
          stroke-linecap="round"
          stroke-linejoin="round"
          fill-opacity="0"
          stroke="rgb(255,255,255)"
          stroke-opacity="1"
          stroke-width="3.104"
          d=" M-56.27899932861328,-14.583000183105469 C-56.27899932861328,-14.583000183105469 56.27899932861328,14.583000183105469 56.27899932861328,14.583000183105469"
        /></g></g><g
      clip-path="url(#__lottie_element_43)"
      transform="matrix(1.4299999475479126,0,0,1.4299999475479126,85.0000228881836,-114.9999771118164)"
      opacity="1"
      style="display: block;"
    ><g
        transform="matrix(0.9990983605384827,-0.04245571047067642,0.04245571047067642,0.9990983605384827,361.7513122558594,451.3039855957031)"
        opacity="1"
        style="display: block;"
      ><g
          opacity="1"
          transform="matrix(1,0,0,1,27.913000106811523,33.459999084472656)"
        ><path
            fill="rgb(250,230,197)"
            fill-opacity="1"
            d=" M13.979999542236328,22.106000900268555 C13.979999542236328,22.106000900268555 27.663000106811523,-33.209999084472656 27.663000106811523,-33.209999084472656 C27.663000106811523,-33.209999084472656 -20.83099937438965,-2.5910000801086426 -20.83099937438965,-2.5910000801086426 C-27.663000106811523,12.798999786376953 5.7270002365112305,33.209999084472656 13.979999542236328,22.106000900268555z"
          /></g></g><g
        transform="matrix(0.9990983605384827,-0.04245571047067642,0.04245571047067642,0.9990983605384827,396.9607849121094,447.36456298828125)"
        opacity="1"
        style="display: block;"
      ><g
          opacity="1"
          transform="matrix(1,0,0,1,11.376999855041504,13.652000427246094)"
        ><path
            fill="rgb(37,36,36)"
            fill-opacity="1"
            d=" M11.128000259399414,-13.402000427246094 C11.128000259399414,-13.402000427246094 2.8269999027252197,13.402000427246094 2.8269999027252197,13.402000427246094 C1.9040000438690186,5.333000183105469 -2.0179998874664307,0.5460000038146973 -11.128000259399414,1.437999963760376 C-11.128000259399414,1.437999963760376 11.128000259399414,-13.402000427246094 11.128000259399414,-13.402000427246094z"
          /></g></g><g
        transform="matrix(0.9990983605384827,-0.04245571047067642,0.04245571047067642,0.9990983605384827,215.54820251464844,620.6978759765625)"
        opacity="1"
        style="display: block;"
      ><g
          opacity="1"
          transform="matrix(1,0,0,1,39.43000030517578,43.96699905395508)"
        ><path
            fill="rgb(77,118,255)"
            fill-opacity="1"
            d=" M0.19200000166893005,31.839000701904297 C0.2930000126361847,31.72100067138672 0.38600000739097595,31.597999572753906 0.48399999737739563,31.479000091552734 C0.48399999737739563,31.479000091552734 0.492000013589859,31.485000610351562 0.492000013589859,31.485000610351562 C0.492000013589859,31.485000610351562 30.743999481201172,-4.263000011444092 30.743999481201172,-4.263000011444092 C39.18000030517578,-14.232000350952148 39.09400177001953,-28.48699951171875 30.552000045776367,-36.10100173950195 C22.009000778198242,-43.71699905395508 8.244999885559082,-41.80799865722656 -0.19200000166893005,-31.839000701904297 C-0.19200000166893005,-31.839000701904297 -30.444000244140625,3.9089999198913574 -30.444000244140625,3.9089999198913574 C-30.444000244140625,3.9089999198913574 -30.43600082397461,3.9159998893737793 -30.43600082397461,3.9159998893737793 C-30.538000106811523,4.0320000648498535 -30.642000198364258,4.144999980926514 -30.743000030517578,4.263000011444092 C-39.18000030517578,14.232999801635742 -32.33599853515625,21.44099998474121 -23.792999267578125,29.055999755859375 C-15.25100040435791,36.67100143432617 -8.244000434875488,41.808998107910156 0.19200000166893005,31.839000701904297z"
          /></g></g><g
        transform="matrix(0.9990983605384827,-0.04245571047067642,0.04245571047067642,0.9990983605384827,232.190185546875,486.2981262207031)"
        opacity="1"
        style="display: block;"
      ><g
          opacity="1"
          transform="matrix(1,0,0,1,78.5790023803711,82.36399841308594)"
        ><path
            fill="rgb(77,118,255)"
            fill-opacity="1"
            d=" M-78.3290023803711,82.11299896240234 C-78.3290023803711,82.11299896240234 57.66299819946289,-78.10299682617188 57.66299819946289,-78.10299682617188 C66.16600036621094,-82.11299896240234 73.28600311279297,-79.21800231933594 78.3290023803711,-65.96700286865234 C78.3290023803711,-65.96700286865234 -47.737998962402344,79.29399871826172 -47.737998962402344,79.29399871826172 C-57.301998138427734,63.33300018310547 -67.82499694824219,72.98500061035156 -78.3290023803711,82.11299896240234z"
          /></g></g><g
        transform="matrix(0.9990983605384827,-0.04245571047067642,0.04245571047067642,0.9990983605384827,259.4708557128906,499.2075500488281)"
        opacity="1"
        style="display: block;"
      ><g
          opacity="1"
          transform="matrix(1,0,0,1,72.5479965209961,84.64299774169922)"
        ><path
            fill="rgb(55,93,218)"
            fill-opacity="1"
            d=" M57.65399932861328,-82.302001953125 C61.08599853515625,-82.37000274658203 69.0260009765625,-84.39199829101562 72.2979965209961,-71.4020004272461 C72.2979965209961,-71.4020004272461 -59.316001892089844,84.39199829101562 -59.316001892089844,84.39199829101562 C-63.9119987487793,70.39399719238281 -72.2979965209961,65.4219970703125 -72.2979965209961,65.4219970703125 C-72.2979965209961,65.4219970703125 57.65399932861328,-82.302001953125 57.65399932861328,-82.302001953125z"
          /></g></g><g
        transform="matrix(0.9990983605384827,-0.04245571047067642,0.04245571047067642,0.9990983605384827,237.80548095703125,621.3385009765625)"
        opacity="1"
        style="display: block;"
      ><g
          opacity="1"
          transform="matrix(1,0,0,1,26.929000854492188,28.920000076293945)"
        ><path
            fill="rgb(251,231,198)"
            fill-opacity="1"
            d=" M5.203000068664551,28.570999145507812 C5.084000110626221,28.670000076293945 5.395999908447266,28.329999923706055 5.494999885559082,28.209999084472656 C5.494999885559082,28.209999084472656 5.502999782562256,28.216999053955078 5.502999782562256,28.216999053955078 C5.502999782562256,28.216999053955078 18.94300079345703,12.166999816894531 18.94300079345703,12.166999816894531 C26.679000854492188,1.1380000114440918 -1.5740000009536743,-28.670000076293945 -11.067999839782715,-17.874000549316406 C-11.170999526977539,-17.756999969482422 -10.86299991607666,-18.104999542236328 -10.760000228881836,-18.22100067138672 C-10.760000228881836,-18.22100067138672 -10.769000053405762,-18.22800064086914 -10.769000053405762,-18.22800064086914 C-10.769000053405762,-18.22800064086914 -26.2549991607666,0.04699999839067459 -26.2549991607666,0.04699999839067459 C-26.2549991607666,0.04699999839067459 -26.24799919128418,0.05299999937415123 -26.24799919128418,0.05299999937415123 C-26.350000381469727,0.17000000178813934 -26.679000854492188,0.4959999918937683 -26.555999755859375,0.4000000059604645 C-17.395000457763672,-6.690999984741211 14.763999938964844,20.591999053955078 5.203000068664551,28.570999145507812z"
          /></g></g><g
        transform="matrix(1,0,0,1,225.5999755859375,768.6640014648438)"
        opacity="1"
        style="display: block;"
      ><g
          opacity="1"
          transform="matrix(1,0,0,1,62.691001892089844,14.036999702453613)"
        ><path
            fill="rgb(226,233,255)"
            fill-opacity="1"
            d=" M47.38399887084961,-9.024999618530273 C32.32600021362305,-13.786999702453613 6.992000102996826,-13.604999542236328 -9.199000358581543,-8.621000289916992 C-11.963000297546387,-7.769999980926514 -14.270999908447266,-6.834000110626221 -16.141000747680664,-5.8429999351501465 C-26.687999725341797,-7.745999813079834 -40.82699966430664,-7.203000068664551 -50.417999267578125,-4.25 C-61.79600143432617,-0.7480000257492065 -62.44200134277344,4.803999900817871 -51.861000061035156,8.149999618530273 C-41.69300079345703,11.364999771118164 -24.87299919128418,11.36400032043457 -13.477999687194824,8.25 C-12.777000427246094,8.515999794006348 -12.043000221252441,8.776000022888184 -11.253999710083008,9.026000022888184 C3.803999900817871,13.786999702453613 29.136999130249023,13.605999946594238 45.32899856567383,8.621000289916992 C61.52199935913086,3.63700008392334 62.44200134277344,-4.263000011444092 47.38399887084961,-9.024999618530273z"
          /></g></g><g
        transform="matrix(1,0,0,1,302.07000732421875,771.6119995117188)"
        opacity="1"
        style="display: block;"
      ><g
          opacity="1"
          transform="matrix(1,0,0,1,18.667999267578125,10.45199966430664)"
        ><path
            fill="rgb(37,36,36)"
            fill-opacity="1"
            d=" M-10.288000106811523,-9.49899959564209 C-10.288000106811523,-9.49899959564209 1.2280000448226929,-7.568999767303467 1.2280000448226929,-7.568999767303467 C9.663000106811523,-8.713000297546387 14.140000343322754,-12.20199966430664 16.875999450683594,-9.302000045776367 C16.875999450683594,-9.302000045776367 17.400999069213867,-6.479000091552734 17.400999069213867,-6.479000091552734 C18.417999267578125,-4.460000038146973 16.819000244140625,-1.222000002861023 13.720000267028809,-0.017000000923871994 C13.720000267028809,-0.017000000923871994 1.4700000286102295,4.252999782562256 1.4700000286102295,4.252999782562256 C1.4700000286102295,4.252999782562256 -2.240999937057495,3.559000015258789 -2.240999937057495,3.559000015258789 C-2.240999937057495,3.559000015258789 -2.311000108718872,7.132999897003174 -2.311000108718872,7.132999897003174 C-2.311000108718872,7.132999897003174 -9.211999893188477,9.138999938964844 -9.211999893188477,9.138999938964844 C-13.690999984741211,10.201000213623047 -18.39299964904785,8.656999588012695 -18.417999267578125,4.650000095367432 C-18.417999267578125,4.650000095367432 -18.393999099731445,-6.553999900817871 -16.350000381469727,-6.997000217437744 C-12.244000434875488,-7.888999938964844 -13.871000289916992,-8.64900016784668 -10.288000106811523,-9.49899959564209z"
          /></g></g><g
        transform="matrix(1,0,0,1,304.7049865722656,762.39697265625)"
        opacity="1"
        style="display: block;"
      ><g
          opacity="1"
          transform="matrix(1,0,0,1,6.080999851226807,10.29699993133545)"
        ><path
            fill="rgb(242,187,187)"
            fill-opacity="1"
            d=" M5.6479997634887695,5.3520002365112305 C5.591000080108643,10.04699993133545 -5.831999778747559,9.90999984741211 -5.775000095367432,5.214000225067139 C-5.775000095367432,5.214000225067139 -5.591000080108643,-10.04699993133545 -5.591000080108643,-10.04699993133545 C-5.591000080108643,-10.04699993133545 5.830999851226807,-9.90999984741211 5.830999851226807,-9.90999984741211 C5.830999851226807,-9.90999984741211 5.6479997634887695,5.3520002365112305 5.6479997634887695,5.3520002365112305z"
          /></g></g><g
        transform="matrix(0.9961704015731812,0.08743318915367126,-0.08743318915367126,0.9961704015731812,309.07562255859375,600.7605590820312)"
        opacity="1"
        style="display: block;"
      ><g
          opacity="1"
          transform="matrix(1,0,0,1,20.367000579833984,84.27100372314453)"
        ><path
            fill="rgb(37,36,36)"
            fill-opacity="1"
            d=" M5.763999938964844,78.62000274658203 C1.7710000276565552,84.02100372314453 -8.131999969482422,83.93199920654297 -10.265999794006348,80.27200317382812 C-11.503999710083008,58.68299865722656 -18.78700065612793,35.69599914550781 -10.46500015258789,6.014999866485596 C-10.46500015258789,6.014999866485596 -8.263999938964844,-1.527999997138977 0.4950000047683716,-0.8840000033378601 C9.220000267028809,-0.24199999868869781 11.6850004196167,7.817999839782715 11.6850004196167,7.817999839782715 C11.6850004196167,7.817999839782715 5.763999938964844,78.62000274658203 5.763999938964844,78.62000274658203z"
          /></g></g><g
        transform="matrix(0.9943475127220154,-0.10617435723543167,0.10617435723543167,0.9943475127220154,290.0107727050781,604.875732421875)"
        opacity="1"
        style="display: block;"
      ><g
          opacity="1"
          transform="matrix(1,0,0,1,20.367000579833984,84.27100372314453)"
        ><path
            fill="rgb(37,36,36)"
            fill-opacity="1"
            d=" M-10.46500015258789,6.014999866485596 C-10.46500015258789,6.014999866485596 -20.117000579833984,-84.02100372314453 -20.117000579833984,-84.02100372314453 C-20.117000579833984,-84.02100372314453 -16.013999938964844,-99.5270004272461 2.5199999809265137,-96.19599914550781 C21.87299919128418,-92.71800231933594 20.117000579833984,-75.9800033569336 20.117000579833984,-75.9800033569336 C20.117000579833984,-75.9800033569336 12.1850004196167,8.317999839782715 12.1850004196167,8.317999839782715 C12.1850004196167,8.317999839782715 -1.7630000114440918,26.472999572753906 -10.46500015258789,6.014999866485596z"
          /></g></g><g
        transform="matrix(1,0,0,1,224.9969940185547,750.4080200195312)"
        opacity="1"
        style="display: block;"
      ><g
          opacity="1"
          transform="matrix(1,0,0,1,12.928999900817871,16.618000030517578)"
        ><path
            fill="rgb(37,36,36)"
            fill-opacity="1"
            d=" M4.617000102996826,-8.755000114440918 C4.617000102996826,-8.755000114440918 4.7789998054504395,1.8329999446868896 4.7789998054504395,1.8329999446868896 C7.178999900817871,9.170000076293945 12.680000305175781,10.036999702453613 10.541999816894531,12.951000213623047 C10.541999816894531,12.951000213623047 8.833000183105469,15.878000259399414 8.833000183105469,15.878000259399414 C7.0229997634887695,17.715999603271484 1.9479999542236328,14.329999923706055 0.6970000267028809,12.718999862670898 C0.6970000267028809,12.718999862670898 -6.232999801635742,1.3680000305175781 -6.232999801635742,1.3680000305175781 C-6.232999801635742,1.3680000305175781 -7.936999797821045,-0.11299999803304672 -7.936999797821045,-0.11299999803304672 C-7.936999797821045,-0.11299999803304672 -9.845000267028809,-0.43299999833106995 -9.845000267028809,-0.43299999833106995 C-10.9399995803833,-2.924999952316284 -15.628000259399414,-5.072000026702881 -14.625,-7.502999782562256 C-14.08899974822998,-8.800999641418457 -9.645000457763672,-12.192000389099121 -8.659000396728516,-13.093999862670898 C-8.659000396728516,-13.093999862670898 -5.511000156402588,-16.22100067138672 -3.9140000343322754,-16.263999938964844 C-0.10700000077486038,-16.368000030517578 3.2730000019073486,-11.812000274658203 4.617000102996826,-8.755000114440918z"
          /></g></g><g
        transform="matrix(0.9773258566856384,-0.21174073219299316,0.21174073219299316,0.9773258566856384,225.57872009277344,742.0701293945312)"
        opacity="1"
        style="display: block;"
      ><g
          opacity="1"
          transform="matrix(1,0,0,1,10.468999862670898,10.644000053405762)"
        ><path
            fill="rgb(242,187,187)"
            fill-opacity="1"
            d=" M1.906000018119812,6.9730000495910645 C-0.6520000100135803,10.392999649047852 -10.218999862670898,4.140999794006348 -7.660999774932861,0.7210000157356262 C-7.660999774932861,0.7210000157356262 0.652999997138977,-10.394000053405762 0.652999997138977,-10.394000053405762 C0.652999997138977,-10.394000053405762 10.218999862670898,-4.140999794006348 10.218999862670898,-4.140999794006348 C10.218999862670898,-4.140999794006348 1.906000018119812,6.9730000495910645 1.906000018119812,6.9730000495910645z"
          /></g></g><g
        transform="matrix(0.9978307485580444,0.06583178043365479,-0.06583178043365479,0.9978307485580444,244.2248992919922,607.9590454101562)"
        opacity="1"
        style="display: block;"
      ><g
          opacity="1"
          transform="matrix(1,0,0,1,34.85599899291992,73.36599731445312)"
        ><path
            fill="rgb(37,36,36)"
            fill-opacity="1"
            d=" M-20.65999984741211,69.76599884033203 C-26.267000198364258,73.11599731445312 -33.832000732421875,63.72700119018555 -34.606998443603516,59.9119987487793 C-27.85700035095215,41.034000396728516 -23.420000076293945,13.77400016784668 -5.807000160217285,3.010999917984009 C-5.807000160217285,3.010999917984009 -0.746999979019165,-1.9989999532699585 5.007999897003174,0.492000013589859 C13.13700008392334,4.010000228881836 11.336000442504883,11.755000114440918 11.336000442504883,11.755000114440918 C10.871000289916992,13.13700008392334 7.754000186920166,23.21299934387207 6.99399995803833,24.457000732421875 C6.99399995803833,24.457000732421875 -20.65999984741211,69.76599884033203 -20.65999984741211,69.76599884033203z"
          /></g></g><g
        transform="matrix(0.9958247542381287,-0.09128547459840775,0.09128547459840775,0.9958247542381287,230.85867309570312,613.7994384765625)"
        opacity="1"
        style="display: block;"
      ><g
          opacity="1"
          transform="matrix(1,0,0,1,34.85599899291992,73.36599731445312)"
        ><path
            fill="rgb(37,36,36)"
            fill-opacity="1"
            d=" M-5.807000160217285,3.009999990463257 C-5.807000160217285,3.009999990463257 1.6770000457763672,-47.73699951171875 1.6770000457763672,-47.73699951171875 C1.0379999876022339,-55.5260009765625 2.4839999675750732,-61.71900177001953 5.697999954223633,-73.11599731445312 C5.697999954223633,-73.11599731445312 13.503999710083008,-82.7490005493164 25.87700080871582,-77.70899963378906 C39.34600067138672,-72.22200012207031 34.606998443603516,-56.095001220703125 34.606998443603516,-56.095001220703125 C34.606998443603516,-56.095001220703125 11.836000442504883,11.505000114440918 11.836000442504883,11.505000114440918 C11.371000289916992,12.88700008392334 -7.497000217437744,20.25 -5.807000160217285,3.009999990463257z"
          /></g></g><g
        transform="matrix(0.9673240780830383,-0.25354307889938354,0.25354307889938354,0.9673240780830383,284.4963684082031,478.8187255859375)"
        opacity="1"
        style="display: block;"
      ><g
          opacity="1"
          transform="matrix(1,0,0,1,14.274999618530273,21.2189998626709)"
        ><path
            fill="rgb(242,187,187)"
            fill-opacity="1"
            d=" M13.767000198364258,6.235000133514404 C13.508999824523926,15.480999946594238 5.078000068664551,20.968000411987305 -1.7929999828338623,16.740999221801758 C-8.663999557495117,12.513999938964844 -14.024999618530273,1.593000054359436 -13.767000198364258,-7.6529998779296875 C-13.508999824523926,-16.89900016784668 -7.729000091552734,-20.968000411987305 -0.8579999804496765,-16.740999221801758 C6.013000011444092,-12.513999938964844 14.024999618530273,-3.010999917984009 13.767000198364258,6.235000133514404z"
          /></g></g><g
        transform="matrix(1,0,0,1,293.48883056640625,498.8526916503906)"
        opacity="1"
        style="display: block;"
      ><g
          opacity="1"
          transform="matrix(1,0,0,1,9.682000160217285,16.0049991607666)"
        ><path
            fill="rgb(242,187,187)"
            fill-opacity="1"
            d=" M-3.3580000400543213,14.928000450134277 C-3.3580000400543213,14.928000450134277 -4.302999973297119,14.684000015258789 -4.302999973297119,14.684000015258789 C-7.495999813079834,13.857999801635742 -9.432999610900879,10.571000099182129 -8.607000350952148,7.376999855041504 C-8.607000350952148,7.376999855041504 -3.947999954223633,-10.62600040435791 -3.947999954223633,-10.62600040435791 C-3.121999979019165,-13.819000244140625 0.16599999368190765,-15.755000114440918 3.3589999675750732,-14.928000450134277 C3.3589999675750732,-14.928000450134277 4.303999900817871,-14.684000015258789 4.303999900817871,-14.684000015258789 C7.497000217437744,-13.857999801635742 9.432999610900879,-10.569000244140625 8.607000350952148,-7.376999855041504 C8.607000350952148,-7.376999855041504 6.671999931335449,10.579999923706055 6.671999931335449,10.579999923706055 C5.8470001220703125,13.77299976348877 -0.16599999368190765,15.753999710083008 -3.3580000400543213,14.928000450134277z"
          /></g></g><g
        transform="matrix(0.9673240780830383,-0.25354307889938354,0.25354307889938354,0.9673240780830383,269.701171875,481.5884704589844)"
        opacity="1"
        style="display: block;"
      ><g
          opacity="1"
          transform="matrix(1,0,0,1,22.84600067138672,21.58099937438965)"
        ><path
            fill="rgb(37,36,36)"
            fill-opacity="1"
            d=" M-11.350000381469727,15.100000381469727 C-11.350000381469727,15.100000381469727 -9.626999855041504,21.33099937438965 1.725000023841858,20.05500030517578 C5.171000003814697,19.667999267578125 8.789999961853027,13.513999938964844 7.367000102996826,9.586000442504883 C6.380000114440918,6.860000133514404 4.50600004196167,7.52400016784668 4.224999904632568,5.985000133514404 C3.953000068664551,4.494999885559082 10.583000183105469,2.502000093460083 11.402999877929688,1.378000020980835 C12.027999877929688,0.5210000276565552 3.700000047683716,-2.372999906539917 3.805999994277954,-2.5490000247955322 C3.99399995803833,-2.7139999866485596 14.734999656677246,-2.0460000038146973 15.505000114440918,-2.624000072479248 C22.56999969482422,-7.921000003814697 17.951000213623047,-14.881999969482422 13.720999717712402,-17.940000534057617 C11.586999893188477,-19.482999801635742 0.27799999713897705,-26.332000732421875 7.820000171661377,-18.767000198364258 C11.29699993133545,-15.279000282287598 2.7330000400543213,-19.60700035095215 -1.2669999599456787,-18.268999099731445 C-9.029000282287598,-15.670999526977539 -22.59600067138672,-8.3100004196167 -11.350000381469727,15.100000381469727z"
          /></g></g><g
        transform="matrix(0.9673240780830383,-0.25354307889938354,0.25354307889938354,0.9673240780830383,300.4542541503906,496.93572998046875)"
        opacity="1"
        style="display: block;"
      ><g
          opacity="1"
          transform="matrix(1,0,0,1,4.382999897003174,4.383999824523926)"
        ><path
            fill="rgb(242,187,187)"
            fill-opacity="1"
            d=" M4.071000099182129,0.11299999803304672 C4.007999897003174,2.361999988555908 2.134999990463257,4.132999897003174 -0.11400000005960464,4.071000099182129 C-2.361999988555908,4.006999969482422 -4.132999897003174,2.134000062942505 -4.070000171661377,-0.11400000005960464 C-4.007999897003174,-2.361999988555908 -2.134000062942505,-4.133999824523926 0.11400000005960464,-4.071000099182129 C2.361999988555908,-4.007999897003174 4.132999897003174,-2.134999990463257 4.071000099182129,0.11299999803304672z"
          /></g></g><g
        transform="matrix(0.9673240780830383,-0.25354307889938354,0.25354307889938354,0.9673240780830383,308.6145935058594,511.5947265625)"
        opacity="1"
        style="display: block;"
      ><g
          opacity="1"
          transform="matrix(1,0,0,1,2.828000068664551,1.2100000381469727)"
        ><path
            fill="rgb(185,65,65)"
            fill-opacity="1"
            d=" M-1.0889999866485596,0.9599999785423279 C-1.0889999866485596,0.9599999785423279 -2.578000068664551,-0.9599999785423279 -2.578000068664551,-0.9599999785423279 C-2.578000068664551,-0.9599999785423279 -0.48500001430511475,0.27799999713897705 2.578000068664551,-0.9419999718666077 C2.578000068664551,-0.9419999718666077 0.984000027179718,0.6079999804496765 -1.0889999866485596,0.9599999785423279z"
          /></g></g><g
        transform="matrix(1,0,0,1,266.88482666015625,516.9837036132812)"
        opacity="1"
        style="display: block;"
      ><g
          opacity="1"
          transform="matrix(1,0,0,1,33.935001373291016,60.731998443603516)"
        ><path
            fill="rgb(231,146,56)"
            fill-opacity="1"
            d=" M-33.685001373291016,39.082000732421875 C-32.70600128173828,16.381999969482422 -29.29400062561035,1.5509999990463257 -30.402000427246094,-18.073999404907227 C-29.972999572753906,-55.57699966430664 -25.288000106811523,-57.183998107910156 -17.014999389648438,-59.560001373291016 C-17.014999389648438,-59.560001373291016 -8.743000030517578,-60.481998443603516 -8.743000030517578,-60.481998443603516 C-6.173999786376953,-59.99300003051758 -3.7939999103546143,-58.81100082397461 -1.253999948501587,-58.18899917602539 C9.380999565124512,-55.58700180053711 16.198999404907227,-55.007999420166016 23.83799934387207,-50.87099838256836 C30.639999389648438,-47.1879997253418 31.035999298095703,-37.34199905395508 31.018999099731445,-29.094999313354492 C32.856998443603516,-4.921999931335449 33.34299850463867,31.468000411987305 33.685001373291016,43.400001525878906 C29.816999435424805,60.481998443603516 -27.21299934387207,50.645999908447266 -33.685001373291016,39.082000732421875z"
          /></g></g><g
        transform="matrix(1,0,0,1,310.2308349609375,551.1917114257812)"
        opacity="1"
        style="display: block;"
      ><g
          opacity="1"
          transform="matrix(1,0,0,1,11.34000015258789,39.685001373291016)"
        ><path
            fill="rgb(195,119,26)"
            fill-opacity="1"
            d=" M11.090999603271484,-39.43600082397461 C11.090999603271484,-39.43600082397461 4.8520002365112305,-32.70399856567383 4.8520002365112305,-32.70399856567383 C-2.4730000495910645,-3.1429998874664307 0.9210000038146973,26.826000213623047 -11.090999603271484,39.43600082397461 C-3.742000102996826,39.41600036621094 2.993000030517578,38.44900131225586 7.973999977111816,34.7859992980957 C8.241000175476074,34.819000244140625 10.538000106811523,32.7760009765625 10.873000144958496,29.089000701904297 C10.873000144958496,29.089000701904297 11.090999603271484,-39.43600082397461 11.090999603271484,-39.43600082397461z"
          /></g></g><g
        transform="matrix(1,0,0,1,288.43682861328125,515.021728515625)"
        opacity="1"
        style="display: block;"
      ><g
          opacity="1"
          transform="matrix(1,0,0,1,11.944000244140625,5.7220001220703125)"
        ><path
            fill="rgb(251,231,198)"
            fill-opacity="1"
            d=" M-9.704999923706055,-4.011000156402588 C-9.704999923706055,-4.011000156402588 -12.487000465393066,-2.7170000076293945 -1.5399999618530273,-0.550000011920929 C6.11899995803833,0.9660000205039978 11.694000244140625,1.909999966621399 11.694000244140625,1.909999966621399 C11.694000244140625,1.909999966621399 4.650000095367432,-5.4720001220703125 -9.704999923706055,-4.011000156402588z"
          /></g></g><g
        transform="matrix(0.9990981817245483,-0.042459432035684586,0.042459432035684586,0.9990981817245483,364.870849609375,540.6787719726562)"
        opacity="1"
        style="display: block;"
      ><g
          opacity="1"
          transform="matrix(1,0,0,1,10.630000114440918,11.645999908447266)"
        ><path
            fill="rgb(242,187,187)"
            fill-opacity="1"
            d=" M-6.6539998054504395,9.196999549865723 C-6.6539998054504395,9.196999549865723 -6.6519999504089355,9.197999954223633 -6.6519999504089355,9.197999954223633 C-3.61299991607666,11.395000457763672 0.6700000166893005,10.708999633789062 2.867000102996826,7.671000003814697 C2.867000102996826,7.671000003814697 8.182000160217285,0.3230000138282776 8.182000160217285,0.3230000138282776 C10.380000114440918,-2.7149999141693115 9.692000389099121,-6.999000072479248 6.6539998054504395,-9.197999954223633 C6.6539998054504395,-9.197999954223633 6.651000022888184,-9.199000358581543 6.651000022888184,-9.199000358581543 C3.614000082015991,-11.395999908447266 -0.6700000166893005,-10.706999778747559 -2.868000030517578,-7.669000148773193 C-2.868000030517578,-7.669000148773193 -8.182000160217285,-0.3240000009536743 -8.182000160217285,-0.3240000009536743 C-10.380000114440918,2.7149999141693115 -9.692999839782715,6.999000072479248 -6.6539998054504395,9.196999549865723z"
          /></g></g><g
        transform="matrix(0.8567845225334167,0.5156746506690979,-0.5156746506690979,0.8567845225334167,351.4787292480469,543.9075317382812)"
        opacity="1"
        style="display: block;"
      ><g
          opacity="1"
          transform="matrix(1,0,0,1,15.277000427246094,25.868000030517578)"
        ><path
            fill="rgb(242,187,187)"
            fill-opacity="1"
            d=" M15.027000427246094,-21.468000411987305 C15.027000427246094,-21.468000411987305 9.97599983215332,9.354000091552734 4.544000148773193,17.486000061035156 C-0.8880000114440918,25.618000030517578 -15.027000427246094,14.560999870300293 -15.027000427246094,14.560999870300293 C-15.027000427246094,14.560999870300293 2.7170000076293945,-25.618000030517578 2.7170000076293945,-25.618000030517578 C2.7170000076293945,-25.618000030517578 15.027000427246094,-21.468000411987305 15.027000427246094,-21.468000411987305z"
          /></g></g><g
        transform="matrix(0.9012784957885742,0.4332401752471924,-0.4332401752471924,0.9012784957885742,316.8432312011719,523.5225219726562)"
        opacity="1"
        style="display: block;"
      ><g
          opacity="1"
          transform="matrix(1,0,0,1,34.207000732421875,30.496999740600586)"
        ><path
            fill="rgb(231,146,56)"
            fill-opacity="1"
            d=" M-28.844999313354492,-2.7279999256134033 C-28.844999313354492,-2.7279999256134033 7.234000205993652,22.979999542236328 7.234000205993652,22.979999542236328 C15.00100040435791,30.246999740600586 33.957000732421875,10.982000350952148 23.82200050354004,3.2639999389648438 C23.183000564575195,2.7780001163482666 -22.01799964904785,-28.29199981689453 -22.01799964904785,-28.29199981689453 C-22.01799964904785,-28.29199981689453 -47.58399963378906,-26.472999572753906 -28.844999313354492,-2.7279999256134033z"
          /></g></g><g
        transform="matrix(0.9012784957885742,0.4332401752471924,-0.4332401752471924,0.9012784957885742,337.31964111328125,564.045166015625)"
        opacity="1"
        style="display: block;"
      ><g
          opacity="1"
          transform="matrix(1,0,0,1,12.029999732971191,12.123000144958496)"
        ><path
            stroke-linecap="round"
            stroke-linejoin="round"
            fill-opacity="0"
            stroke="rgb(251,231,198)"
            stroke-opacity="1"
            stroke-width="1.417"
            d=" M-8.487000465393066,6.205999851226807 C-1.652999997138977,8.579999923706055 8.487000465393066,-1.0809999704360962 6.607999801635742,-8.581000328063965"
          /></g></g></g></g></svg>
